<svg width="100" height="75" xmlns="http://www.w3.org/2000/svg">
 <!-- Created with Method Draw - http://github.com/duopixel/Method-Draw/ -->
 <g>
  <title>background</title>
  <rect fill="none" id="canvas_background" height="77" width="102" y="-1" x="-1"/>
  <g display="none" overflow="visible" y="0" x="0" height="100%" width="100%" id="canvasGrid">
   <rect fill="url(#gridpattern)" stroke-width="0" y="0" x="0" height="100%" width="100%"/>
  </g>
 </g>
 <g>
  <title>Layer 1</title>
  <path id="svg_1" d="m67.394075,25.897138c0,0 3.068209,-10.862914 0,-14.542687c-3.071822,-3.679773 -4.296938,-6.130892 -11.051333,-7.885671s-4.293324,-1.405061 -9.204626,-1.22556c-4.911302,0.176406 -9.005861,2.451119 -9.005861,3.676679c0,0 -3.068209,0.176406 -4.293324,1.228654c-1.228729,1.052248 -3.274201,5.954486 -3.274201,7.18314s1.022736,9.464043 2.045472,11.215726l-1.217887,0.349718c-1.022736,10.160383 4.090945,11.389038 4.090945,11.389038c1.83948,9.464043 3.682573,5.434552 3.682573,7.885671s-1.843093,1.578372 -1.843093,1.578372s-1.633487,3.853085 -5.724431,5.255051c-4.090945,1.398871 -26.800747,8.931729 -28.647455,10.510101c-1.846707,1.581467 -1.637101,8.937919 -1.637101,8.937919l97.383999,0c0,0 0.213221,-7.356452 -1.633487,-8.937919c-1.850321,-1.581467 -24.560124,-9.11123 -28.651069,-10.510101c-4.090945,-1.401966 -5.724431,-5.255051 -5.724431,-5.255051s-1.843093,0.872747 -1.843093,-1.578372s1.843093,1.578372 3.686187,-7.885671c0,0 5.110067,-1.228654 4.090945,-11.389038l-1.228729,0z" stroke-width="1.5" stroke="#ffffff" fill="#7a85b8"/>
 </g>
</svg>