<svg width="300" height="300" xmlns="http://www.w3.org/2000/svg">
 <!-- Created with SVG Editor - http://github.com/mzalive/SVG Editor/ -->

 <g>
  <title>background</title>
  <rect fill="none" id="canvas_background" height="302" width="302" y="-1" x="-1"/>
  <g display="none" overflow="visible" y="0" x="0" height="100%" width="100%" id="canvasGrid">
   <rect fill="url(#gridpattern)" stroke-width="0" y="0" x="0" height="100%" width="100%"/>
  </g>
 </g>
 <g>
  <title>Layer 1</title>
  <path stroke="#0000bf" opacity="0.8" id="svg_1" d="m259.066205,67.917909l-47.712285,0l0,-19.084915l-119.280711,0l0,19.084915l-47.712285,0c-14.046497,0 -25.446552,11.400056 -25.446552,25.446553l0,132.003992c0,14.046497 11.400055,25.446553 25.446552,25.446553l214.705281,0c14.046497,0 25.446552,-11.400056 25.446552,-25.446553l0,-132.003992c0,-14.046497 -11.400055,-25.446553 -25.446552,-25.446553zm-107.359002,168.570689c-42.521188,0 -77.103052,-34.594588 -77.103052,-77.115778c0,-42.52119 34.581864,-77.128501 77.103052,-77.128501s77.128498,34.607312 77.128498,77.128501c0,42.52119 -34.620034,77.115778 -77.128498,77.115778zm0,-128.81045c-28.551031,0 -51.681947,23.14364 -51.681947,51.681949c0,28.551032 23.143639,51.681949 51.681947,51.681949c28.551031,0 51.681947,-23.130916 51.681947,-51.681949c0.012723,-28.538309 -23.118192,-51.681949 -51.681947,-51.681949z" stroke-width="6" fill="#ffaa56"/>
  <path stroke="#000000" id="svg_3" d="m152.067129,121.389871c-21.540074,0 -39.000017,17.460919 -39.000017,39.000007c0,21.539091 17.459943,39.000007 39.000017,39.000007c21.539078,0 38.999985,-17.460916 38.999985,-39.000007c0,-21.539087 -17.460907,-39.000007 -38.999985,-39.000007zm0,73.326203c-4.156964,0 -7.529779,-3.371832 -7.529779,-7.529744s3.36978,-7.529895 7.529779,-7.529895c4.158937,0 7.528714,3.369886 7.528714,7.529895s-3.369777,7.529744 -7.528714,7.529744zm0,-20.675175l-21.086589,-17.608388l9.308805,0l0,-23.555562l23.557649,0l0,23.555562l9.305639,0l-21.085508,17.608388l0.000003,0z" stroke-width="6" fill="#ffaa56"/>
 </g>
</svg>