<svg width="100" height="75" xmlns="http://www.w3.org/2000/svg">
 <!-- Created with Method Draw - http://github.com/duopixel/Method-Draw/ -->
 <g>
  <title>background</title>
  <rect fill="none" id="canvas_background" height="77" width="102" y="-1" x="-1"/>
  <g display="none" overflow="visible" y="0" x="0" height="100%" width="100%" id="canvasGrid">
   <rect fill="url(#gridpattern)" stroke-width="0" y="0" x="0" height="100%" width="100%"/>
  </g>
 </g>
 <g>
  <title>Layer 1</title>
  <path id="svg_1" d="m66.676176,52.889078c-3.632174,-1.453511 -5.082476,-5.448261 -5.082476,-5.448261s-1.636403,0.904835 -1.636403,-1.636403s1.636403,1.636403 3.272807,-8.175599c0,0 4.537008,-1.273828 3.632174,-11.807773l-1.090936,0c0,0 2.72413,-11.262305 0,-15.077371c-2.727339,-3.815066 -3.815066,-6.356304 -9.812003,-8.175599s-3.811857,-1.45672 -8.172391,-1.270619c-4.360534,0.182892 -7.995916,2.541238 -7.995916,3.811857c0,0 -2.72413,0.182892 -3.811857,1.273828c-1.090936,1.090936 -2.907022,6.173412 -2.907022,7.447239s0.908043,9.812003 1.816087,11.62809l-1.08131,0.362576c-0.908043,10.533945 3.632174,11.807773 3.632174,11.807773c1.633195,9.812003 3.269598,5.634361 3.269598,8.175599s-1.636403,1.636403 -1.636403,1.636403s-1.450303,3.994749 -5.082476,5.448261c-3.632174,1.450303 -23.79523,9.260118 -25.434842,10.896521c-1.639612,1.639612 -1.453511,9.266535 -1.453511,9.266535l86.46306,0c0,0 0.189309,-7.626923 -1.450303,-9.266535c-1.642821,-1.636403 -21.805877,-9.446218 -25.43805,-10.896521zm-40.011666,-0.551885c-0.317655,-0.577554 -0.474878,-0.994677 -0.474878,-0.994677s-1.38613,0.766864 -1.38613,-1.38613s1.38613,1.38613 2.77226,-6.927441c0,0 3.847152,-1.078101 3.07708,-10.007729l-0.924087,0c0,0 0.458835,-1.896303 0.760446,-4.280318c-0.012835,-0.988259 0.019252,-2.040691 0.118719,-3.195799l0.121928,-1.366878c-0.067381,-1.578648 -0.343324,-3.012907 -1.001094,-3.933785c-2.310216,-3.231094 -3.234303,-5.387296 -8.313571,-6.927441c-5.079268,-1.540144 -3.234303,-1.235324 -6.927441,-1.078101c-3.696346,0.154014 -6.776635,2.152993 -6.776635,3.234303c0,0 -2.310216,0.154014 -3.234303,1.078101c-0.86954,0.86954 -2.262087,4.691023 -2.428936,6.048275l0,0.901626c0.150806,2.095238 0.827828,7.857945 1.504849,9.215197l-0.917669,0.308029c-0.766864,8.929628 3.07708,10.007729 3.07708,10.007729c1.38613,8.313571 2.77226,4.774447 2.77226,6.927441s-1.38613,1.38613 -1.38613,1.38613s-1.228907,3.391526 -4.309195,4.617224c-0.195727,0.077007 -0.446,0.179684 -0.744403,0.295194l0,16.79399l1.844965,0c-0.09305,-4.100634 0.247065,-9.391672 2.393641,-11.531831c1.142274,-1.139065 4.88675,-3.012907 20.381243,-9.18311zm71.648797,-29.057389c-0.128345,-1.212864 -0.407497,-2.294173 -0.936921,-3.035368c-2.307008,-3.234303 -3.234303,-5.387296 -8.310362,-6.927441c-5.082476,-1.540144 -3.234303,-1.235324 -6.930649,-1.078101c-3.693138,0.154014 -6.773426,2.152993 -6.773426,3.234303c0,0 -2.307008,0.154014 -3.234303,1.078101c-0.86954,0.872748 -2.274922,4.723109 -2.432145,6.067527l0.105885,0l0.256691,2.929483c0.064173,0.741194 0.07059,1.398964 0.086633,2.069569c0.288777,2.13695 0.673813,4.331656 1.058849,5.098519l-0.917669,0.308029c-0.766864,8.929628 3.080289,10.007729 3.080289,10.007729c1.38613,8.313571 2.769051,4.774447 2.769051,6.927441s-1.38613,1.38613 -1.38613,1.38613s-0.170058,0.455626 -0.523007,1.084518c15.305184,6.096405 19.017574,7.957412 20.147013,9.093269c2.149785,2.140159 2.486691,7.427988 2.393641,11.531831l1.540144,0l0,-17.025012c-0.051338,-0.019252 -0.121928,-0.04813 -0.166849,-0.067381c-3.07708,-1.228907 -4.309195,-4.617224 -4.309195,-4.617224s-1.389339,0.766864 -1.389339,-1.38613s1.389339,1.38613 2.77226,-6.927441c0,0 2.579742,-0.734777 3.089915,-5.907095l0,-3.936994c-0.003209,-0.057755 -0.003209,-0.105885 -0.009626,-0.16364l-0.927295,0c0,0 0.689856,-2.855684 0.936921,-5.971268l0,-3.773354l0.009626,0z" stroke-width="1.5" stroke="#ffffff" fill="#ccab33"/>
 </g>
</svg>