<svg width="40" height="40" xmlns="http://www.w3.org/2000/svg">
 <!-- Created with Method Draw - http://github.com/duopixel/Method-Draw/ -->
 <g>
  <title>background</title>
  <rect fill="none" id="canvas_background" height="42" width="42" y="-1" x="-1"/>
  <g display="none" overflow="visible" y="0" x="0" height="100%" width="100%" id="canvasGrid">
   <rect fill="url(#gridpattern)" stroke-width="0" y="0" x="0" height="100%" width="100%"/>
  </g>
 </g>
 <g>
  <title>Layer 1</title>
  <path id="svg_1" d="m226.357134,137.742882c-37.280895,0 -67.500025,20.818783 -67.500025,46.499996c0,25.681217 30.21913,46.499996 67.500025,46.499996c37.27917,0 67.499968,-20.818779 67.499968,-46.499996c0,-25.681213 -30.220798,-46.499996 -67.499968,-46.499996zm0,87.427373c-7.194745,0 -13.032309,-4.020261 -13.032309,-8.97777s5.832312,-8.97795 13.032309,-8.97795c7.19816,0 13.030466,4.01794 13.030466,8.97795s-5.832306,8.97777 -13.030466,8.97777zm0,-24.651164l-36.496017,-20.994611l16.111393,0l0,-28.08547l40.772851,0l0,28.08547l16.105913,0l-36.494145,20.994611l0.000006,0z" stroke-width="1.5" stroke="#000" fill="#fff"/>
  <path stroke="#0000bf" id="svg_2" d="m20.14099,6.059184c-7.763137,0 -14.055777,6.43934 -14.055777,14.382651c0,7.943312 6.29264,14.382651 14.055777,14.382651c7.762778,0 14.055766,-6.439339 14.055766,-14.382651c0,-7.943311 -6.292987,-14.382651 -14.055766,-14.382651zm0,27.041667c-1.498188,0 -2.713766,-1.243484 -2.713766,-2.776863s1.214484,-2.776919 2.713766,-2.776919c1.498899,0 2.713382,1.242766 2.713382,2.776919s-1.214482,2.776863 -2.713382,2.776863zm0,-7.624712l-7.599699,-6.493725l3.354934,0l0,-8.686958l8.49028,0l0,8.686958l3.353793,0l-7.59931,6.493725l0.000001,0z" stroke-width="1.5" fill="#ffaa56"/>
 </g>
</svg>